<svg width="394" height="394" viewBox="0 0 394 394" fill="none" xmlns="http://www.w3.org/2000/svg">
<path d="M312.182 42.4338C312.182 42.4338 272.364 9.91305 220.577 24.3098C168.79 38.7066 147.104 83.3625 117.412 114.039C101.857 130.099 78.8788 136.017 60.4002 148.38C1.3002 187.914 10.0628 276.824 55.6249 310.314C95.0722 339.344 144.362 342.378 208.497 320.968C272.632 299.558 318.525 286.698 358.296 225.368C398.066 164.038 361.235 86.5697 312.182 42.4338Z" fill="#407BFF"/>
<path opacity="0.7" d="M312.182 42.4338C312.182 42.4338 272.364 9.91305 220.577 24.3098C168.79 38.7066 147.104 83.3625 117.412 114.039C101.857 130.099 78.8788 136.017 60.4002 148.38C1.3002 187.914 10.0628 276.824 55.6249 310.314C95.0722 339.344 144.362 342.378 208.497 320.968C272.632 299.558 318.525 286.698 358.296 225.368C398.066 164.038 361.235 86.5697 312.182 42.4338Z" fill="white"/>
<path d="M334.482 193.667C334.482 193.667 334.482 188.655 327.461 181.634C320.44 174.613 315.925 170.602 315.925 170.602C315.925 170.602 312.41 182.138 318.935 189.159C325.46 196.18 334.482 202.705 334.482 202.705V193.667Z" fill="#407BFF"/>
<path d="M324.293 224.99C324.293 224.99 324.293 219.978 317.272 212.957C310.251 205.936 305.736 201.925 305.736 201.925C305.736 201.925 302.222 213.461 308.746 220.49C315.271 227.519 324.293 234.036 324.293 234.036V224.99Z" fill="#407BFF"/>
<path d="M334.041 202.209C334.041 202.209 334.569 197.221 342.299 190.98C350.03 184.739 354.907 181.232 354.907 181.232C354.907 181.232 357.185 193.052 349.959 199.356C342.733 205.66 333.064 211.176 333.064 211.176L334.041 202.209Z" fill="#407BFF"/>
<path d="M321.733 239.205C321.733 239.205 322.781 234.304 331.118 228.906C339.455 223.508 344.711 220.53 344.711 220.53C344.711 220.53 345.727 232.547 337.879 238.047C330.03 243.547 319.841 248.031 319.841 248.031L321.733 239.205Z" fill="#407BFF"/>
<path d="M324.041 279.535C324.041 279.535 324.041 274.523 331.07 267.502C338.099 260.481 342.599 256.47 342.599 256.47C342.599 256.47 346.113 267.999 339.628 275.012C333.143 282.025 324.073 288.558 324.073 288.558L324.041 279.535Z" fill="#407BFF"/>
<path d="M323.931 289.385C323.931 289.385 324.64 284.421 318.691 276.47C312.741 268.519 308.833 263.909 308.833 263.909C308.833 263.909 303.719 274.831 309.18 282.703C314.64 290.575 322.647 298.321 322.647 298.321L323.931 289.385Z" fill="#407BFF"/>
<path d="M317.005 318.557C317.005 318.557 317.005 313.545 324.026 306.524C331.047 299.503 335.562 295.492 335.562 295.492C335.562 295.492 339.069 307.028 332.552 314.05C326.035 321.071 317.005 327.595 317.005 327.595V318.557Z" fill="#407BFF"/>
<path d="M321.693 345.01C321.693 345.01 320.424 340.156 325.436 331.614C330.448 323.072 333.805 318.013 333.805 318.013C333.805 318.013 340.109 328.257 335.593 336.728C331.078 345.199 323.978 353.765 323.978 353.765L321.693 345.01Z" fill="#407BFF"/>
<path d="M335.121 192.382C334.763 197.604 334.121 202.802 333.198 207.953C330.416 222.295 323.482 231.593 320.708 244.501C317.934 257.408 325.901 274.145 323.766 290.78C321.63 307.415 315.153 316.674 317.005 327.776C318.856 338.879 328.825 369.54 328.825 369.54" stroke="#263238" stroke-linecap="round" stroke-linejoin="round"/>
<path d="M333.97 205.542L341.543 199.734" stroke="#263238" stroke-linecap="round" stroke-linejoin="round"/>
<path d="M334.325 198.86L331.157 193.225" stroke="#263238" stroke-linecap="round" stroke-linejoin="round"/>
<path d="M321.126 243.91C321.126 243.91 327.43 239.182 333.97 234.406" stroke="#263238" stroke-linecap="round" stroke-linejoin="round"/>
<path d="M324.294 234.036C324.294 234.036 319.014 223.69 313.033 216.826" stroke="#263238" stroke-linecap="round" stroke-linejoin="round"/>
<path d="M324.294 286.674C327.91 280.008 332.475 273.903 337.847 268.55" stroke="#263238" stroke-linecap="round" stroke-linejoin="round"/>
<path d="M323.08 293.711C321.156 289.187 318.861 284.83 316.217 280.686C312.521 275.233 311.993 274.531 311.993 274.531" stroke="#263238" stroke-linecap="round" stroke-linejoin="round"/>
<path d="M317.005 327.808C318.608 323.822 320.515 319.965 322.71 316.272C324.9 312.827 327.372 309.569 330.101 306.532" stroke="#263238" stroke-linecap="round" stroke-linejoin="round"/>
<path d="M323.978 353.741C323.978 353.741 323.238 347.737 325.877 342.638C328.517 337.54 331.512 330.818 332.741 328.202" stroke="#263238" stroke-linecap="round" stroke-linejoin="round"/>
<path d="M277.179 260.678C277.179 260.678 276.635 257.526 280.276 252.365C283.916 247.203 286.312 244.193 286.312 244.193C286.312 244.193 289.763 251.049 286.438 256.155C283.971 259.777 281.203 263.186 278.164 266.344L277.179 260.678Z" fill="#407BFF"/>
<path d="M286.974 279.212C286.974 279.212 286.43 276.06 290.071 270.899C293.711 265.737 296.107 262.727 296.107 262.727C296.107 262.727 299.558 269.583 296.233 274.689C293.762 278.309 290.992 281.714 287.951 284.87L286.974 279.212Z" fill="#407BFF"/>
<path d="M278.385 265.982C278.385 265.982 277.51 262.916 271.986 259.843C266.462 256.77 263.003 255.115 263.003 255.115C263.003 255.115 262.869 262.79 268.078 265.95C271.875 268.142 275.85 270.011 279.961 271.537L278.385 265.982Z" fill="#407BFF"/>
<path d="M290.118 287.849C290.118 287.849 288.928 284.886 283.113 282.403C277.297 279.921 273.657 278.629 273.657 278.629C273.657 278.629 274.326 286.273 279.842 288.873C283.846 290.652 287.993 292.091 292.238 293.175L290.118 287.849Z" fill="#407BFF"/>
<path d="M293.049 313.388C293.049 313.388 292.506 310.236 287.336 306.603C282.167 302.97 278.905 300.937 278.905 300.937C278.905 300.937 277.959 308.549 282.805 312.245C286.35 314.822 290.103 317.1 294.026 319.053L293.049 313.388Z" fill="#407BFF"/>
<path d="M294.192 319.55C294.192 319.55 293.207 316.516 296.075 310.882C298.944 305.248 300.89 301.938 300.89 301.938C300.89 301.938 305.279 308.242 302.71 313.758C300.781 317.691 298.525 321.455 295.965 325.011L294.192 319.55Z" fill="#407BFF"/>
<path d="M303.002 344.915C303.002 344.915 303.364 341.763 308.313 337.823C313.262 333.883 316.414 331.685 316.414 331.685C316.414 331.685 317.793 339.234 313.159 343.206C309.769 345.987 306.153 348.48 302.348 350.66L303.002 344.915Z" fill="#407BFF"/>
<path d="M301.702 337.091C301.702 337.091 301.158 333.939 295.989 330.306C290.819 326.673 287.557 324.64 287.557 324.64C287.557 324.64 286.611 332.252 291.458 335.948C295.001 338.533 298.755 340.819 302.679 342.78L301.702 337.091Z" fill="#407BFF"/>
<path d="M301.631 354.19C301.631 354.19 301.899 351.038 297.825 346.176C293.751 341.314 291.103 338.564 291.103 338.564C291.103 338.564 288.258 345.656 292.009 350.495C294.786 353.882 297.841 357.032 301.142 359.911L301.631 354.19Z" fill="#407BFF"/>
<path d="M276.643 259.938C277.43 263.175 278.396 266.366 279.535 269.496C282.837 278.164 288.203 283.239 291.355 291.056C294.507 298.873 291.316 310.212 294.46 320.409C297.604 330.605 302.671 335.712 302.718 342.875C302.765 350.037 300.141 369.414 300.141 369.414" stroke="#263238" stroke-linecap="round" stroke-linejoin="round"/>
<path d="M278.787 268.07L273.412 265.249" stroke="#263238" stroke-linecap="round" stroke-linejoin="round"/>
<path d="M277.841 263.909L279.22 260.04" stroke="#263238" stroke-linecap="round" stroke-linejoin="round"/>
<path d="M291.008 290.772C291.008 290.772 286.525 288.479 281.923 286.202" stroke="#263238" stroke-linecap="round" stroke-linejoin="round"/>
<path d="M287.951 284.87C287.951 284.87 290.134 277.778 293.144 272.853" stroke="#263238" stroke-linecap="round" stroke-linejoin="round"/>
<path d="M293.664 317.887C290.674 314.101 287.149 310.769 283.199 307.998" stroke="#263238" stroke-linecap="round" stroke-linejoin="round"/>
<path d="M295.201 322.174C295.916 319.128 296.883 316.147 298.093 313.262C299.818 309.44 300.07 308.935 300.07 308.935" stroke="#263238" stroke-linecap="round" stroke-linejoin="round"/>
<path d="M302.458 348.296C302.458 348.296 306.02 343.93 308.234 342.299C309.572 341.313 310.828 340.222 311.993 339.037" stroke="#263238" stroke-linecap="round" stroke-linejoin="round"/>
<path d="M302.702 342.875C301.262 340.549 299.647 338.337 297.872 336.255C296.122 334.349 294.219 332.588 292.183 330.992" stroke="#263238" stroke-linecap="round" stroke-linejoin="round"/>
<path d="M301.142 359.911C300.972 357.489 300.155 355.157 298.778 353.158C296.572 350.242 293.971 346.373 292.907 344.852" stroke="#263238" stroke-linecap="round" stroke-linejoin="round"/>
<path d="M65.8689 193.667C65.8689 193.667 65.8689 188.655 72.89 181.634C79.9111 174.613 84.4263 170.602 84.4263 170.602C84.4263 170.602 87.9408 182.138 81.424 189.159C74.9073 196.18 65.8689 202.705 65.8689 202.705V193.667Z" fill="#407BFF"/>
<path d="M76.0656 224.99C76.0656 224.99 76.0656 219.978 83.0867 212.957C90.1078 205.936 94.623 201.925 94.623 201.925C94.623 201.925 98.1296 213.461 91.6129 220.49C85.0961 227.519 76.0656 234.036 76.0656 234.036V224.99Z" fill="#407BFF"/>
<path d="M66.3102 202.209C66.3102 202.209 65.7822 197.221 58.0598 190.98C50.3374 184.739 45.4518 181.232 45.4518 181.232C45.4518 181.232 43.1824 193.052 50.4084 199.356C57.6343 205.66 67.2952 211.176 67.2952 211.176L66.3102 202.209Z" fill="#407BFF"/>
<path d="M78.6266 239.205C78.6266 239.205 77.5707 234.304 69.2337 228.906C60.8966 223.508 55.6407 220.53 55.6407 220.53C55.6407 220.53 54.632 232.547 62.4726 238.047C70.3132 243.547 80.5178 248.031 80.5178 248.031L78.6266 239.205Z" fill="#407BFF"/>
<path d="M76.3099 279.535C76.3099 279.535 76.3099 274.523 69.2888 267.502C62.2677 260.481 57.7525 256.47 57.7525 256.47C57.7525 256.47 54.238 267.999 60.7627 275.012C67.2873 282.025 76.3099 288.566 76.3099 288.566V279.535Z" fill="#407BFF"/>
<path d="M76.436 289.385C76.436 289.385 75.7189 284.421 81.6762 276.47C87.6335 268.519 91.5262 263.909 91.5262 263.909C91.5262 263.909 96.6403 274.831 91.1874 282.703C85.7344 290.575 77.7204 298.321 77.7204 298.321L76.436 289.385Z" fill="#407BFF"/>
<path d="M83.3546 318.557C83.3546 318.557 83.3546 313.545 76.3257 306.524C69.2967 299.503 64.7972 295.492 64.7972 295.492C64.7972 295.492 61.2828 307.021 67.768 314.042C74.2532 321.063 83.3231 327.587 83.3231 327.587L83.3546 318.557Z" fill="#407BFF"/>
<path d="M78.666 345.01C78.666 345.01 79.9347 340.156 74.9151 331.614C69.8956 323.072 66.5545 318.013 66.5545 318.013C66.5545 318.013 60.2505 328.257 64.7657 336.728C69.281 345.199 76.3729 353.765 76.3729 353.765L78.666 345.01Z" fill="#407BFF"/>
<path d="M65.2385 192.382C65.592 197.604 66.2339 202.802 67.1612 207.953C69.935 222.295 76.8773 231.593 79.651 244.501C82.4248 257.408 74.4581 274.145 76.5936 290.772C78.7291 307.399 85.1985 316.666 83.3546 327.769C81.5107 338.872 71.5346 369.533 71.5346 369.533" stroke="#263238" stroke-linecap="round" stroke-linejoin="round"/>
<path d="M66.3811 205.542L58.8163 199.734" stroke="#263238" stroke-linecap="round" stroke-linejoin="round"/>
<path d="M66.0344 198.86L69.2022 193.225" stroke="#263238" stroke-linecap="round" stroke-linejoin="round"/>
<path d="M79.2255 243.91C79.2255 243.91 72.9215 239.182 66.3811 234.406" stroke="#263238" stroke-linecap="round" stroke-linejoin="round"/>
<path d="M76.0656 234.036C76.0656 234.036 81.3373 223.69 87.3261 216.826" stroke="#263238" stroke-linecap="round" stroke-linejoin="round"/>
<path d="M76.0578 286.674C72.4428 280.01 67.8801 273.905 62.512 268.55" stroke="#263238" stroke-linecap="round" stroke-linejoin="round"/>
<path d="M77.2949 293.711C79.2184 289.187 81.5142 284.83 84.1584 280.686C87.8541 275.233 88.3821 274.531 88.3821 274.531" stroke="#263238" stroke-linecap="round" stroke-linejoin="round"/>
<path d="M83.3546 327.808C81.7468 323.823 79.8369 319.966 77.6416 316.272C75.4553 312.826 72.9856 309.568 70.2581 306.532" stroke="#263238" stroke-linecap="round" stroke-linejoin="round"/>
<path d="M76.373 353.741C76.373 353.741 77.1137 347.737 74.4818 342.638C71.8498 337.54 68.8476 330.818 67.6183 328.202" stroke="#263238" stroke-linecap="round" stroke-linejoin="round"/>
<path d="M123.172 260.678C123.172 260.678 123.716 257.526 120.075 252.365C116.435 247.203 114.039 244.193 114.039 244.193C114.039 244.193 110.588 251.049 113.913 256.155C116.383 259.778 119.154 263.186 122.195 266.344L123.172 260.678Z" fill="#407BFF"/>
<path d="M113.385 279.212C113.385 279.212 113.929 276.06 110.288 270.899C106.648 265.737 104.252 262.727 104.252 262.727C104.252 262.727 100.801 269.583 104.126 274.689C106.595 278.308 109.363 281.713 112.4 284.87L113.385 279.212Z" fill="#407BFF"/>
<path d="M121.975 265.982C121.975 265.982 122.841 262.916 128.365 259.843C133.889 256.77 137.348 255.115 137.348 255.115C137.348 255.115 137.49 262.79 132.274 265.95C128.478 268.141 124.506 270.01 120.399 271.537L121.975 265.982Z" fill="#407BFF"/>
<path d="M110.233 287.849C110.233 287.849 111.423 284.886 117.239 282.403C123.054 279.921 126.695 278.629 126.695 278.629C126.695 278.629 126.025 286.273 120.509 288.873C116.505 290.652 112.359 292.091 108.114 293.175L110.233 287.849Z" fill="#407BFF"/>
<path d="M107.31 313.388C107.31 313.388 107.854 310.236 113.015 306.603C118.176 302.97 121.447 300.937 121.447 300.937C121.447 300.937 122.4 308.549 117.507 312.245C113.963 314.824 110.209 317.101 106.285 319.053L107.31 313.388Z" fill="#407BFF"/>
<path d="M106.167 319.55C106.167 319.55 107.152 316.516 104.284 310.882C101.416 305.248 99.4692 301.938 99.4692 301.938C99.4692 301.938 95.0722 308.242 97.6411 313.758C99.5745 317.691 101.833 321.455 104.394 325.011L106.167 319.55Z" fill="#407BFF"/>
<path d="M97.3495 344.915C97.3495 344.915 96.987 341.763 92.0384 337.823C87.0898 333.883 83.9456 331.685 83.9456 331.685C83.9456 331.685 82.5588 339.234 87.1922 343.206C90.5823 345.987 94.1986 348.48 98.0036 350.66L97.3495 344.915Z" fill="#407BFF"/>
<path d="M98.6576 337.091C98.6576 337.091 99.2013 333.939 104.363 330.306C109.524 326.673 112.794 324.64 112.794 324.64C112.794 324.64 113.748 332.252 108.894 335.948C105.364 338.533 101.623 340.819 97.712 342.78L98.6576 337.091Z" fill="#407BFF"/>
<path d="M98.7285 354.19C98.7285 354.19 98.4527 351.038 102.527 346.176C106.601 341.314 109.248 338.564 109.248 338.564C109.248 338.564 112.101 345.656 108.342 350.495C105.565 353.882 102.51 357.032 99.2092 359.911L98.7285 354.19Z" fill="#407BFF"/>
<path d="M123.716 259.938C122.923 263.174 121.955 266.365 120.816 269.496C117.522 278.164 112.148 283.239 108.996 291.056C105.844 298.873 108.996 310.212 105.884 320.409C102.771 330.605 97.712 335.688 97.6568 342.875C97.6017 350.061 100.234 369.414 100.234 369.414" stroke="#263238" stroke-linecap="round" stroke-linejoin="round"/>
<path d="M121.565 268.07L126.939 265.249" stroke="#263238" stroke-linecap="round" stroke-linejoin="round"/>
<path d="M122.51 263.909L121.139 260.04" stroke="#263238" stroke-linecap="round" stroke-linejoin="round"/>
<path d="M109.343 290.772C109.343 290.772 113.834 288.479 118.429 286.202" stroke="#263238" stroke-linecap="round" stroke-linejoin="round"/>
<path d="M112.4 284.87C112.4 284.87 110.218 277.778 107.207 272.853" stroke="#263238" stroke-linecap="round" stroke-linejoin="round"/>
<path d="M106.687 317.887C109.68 314.103 113.205 310.772 117.152 307.998" stroke="#263238" stroke-linecap="round" stroke-linejoin="round"/>
<path d="M105.151 322.174C104.436 319.128 103.468 316.147 102.259 313.262C100.533 309.44 100.281 308.935 100.281 308.935" stroke="#263238" stroke-linecap="round" stroke-linejoin="round"/>
<path d="M97.9011 348.296C97.9011 348.296 94.3393 343.93 92.1172 342.299C90.7831 341.312 89.5289 340.221 88.3663 339.037" stroke="#263238" stroke-linecap="round" stroke-linejoin="round"/>
<path d="M97.6568 342.875C99.0946 340.547 100.71 338.334 102.487 336.255C104.233 334.348 106.134 332.587 108.169 330.992" stroke="#263238" stroke-linecap="round" stroke-linejoin="round"/>
<path d="M99.2092 359.911C99.3841 357.49 100.2 355.159 101.573 353.158C103.787 350.242 106.388 346.373 107.444 344.852" stroke="#263238" stroke-linecap="round" stroke-linejoin="round"/>
<path d="M271.734 369.178C272.065 362.181 272.159 346.066 267.384 331.031C261.08 311.102 248.409 284.224 245.564 279.811C242.72 275.398 245.564 270.355 245.564 270.355C249.326 259.187 251.767 247.616 252.838 235.88C252.838 235.88 254.414 236.518 258.842 240.608C263.271 244.698 303.096 269.165 309.416 270.434C315.736 271.702 325.137 268.645 327.351 264.216C329.565 259.788 285.729 213.729 274.027 202.343C262.325 190.956 233.839 192.887 229.111 190.01C224.383 187.134 224.044 183.368 227.212 171.351C230.38 159.334 240.813 148.262 242.074 138.459C243.334 128.657 236.069 109.682 219.623 99.8475C203.178 90.0132 191.484 95.7341 191.484 95.7341C191.484 95.7341 182.312 103.614 181.043 109.65C179.774 115.686 180.413 117.869 176.315 120.399C172.217 122.928 165.882 121.975 166.512 124.197C167.143 126.419 168.727 131.785 171.886 132.077C171.886 132.077 167.458 136.19 168.411 138.089C168.987 139.273 169.309 140.564 169.357 141.879C169.357 141.879 168.411 144.409 169.357 146.308C169.963 147.539 170.489 148.808 170.933 150.106C170.933 150.106 171.879 156.41 176.622 157.695C181.366 158.979 189.908 158.388 189.908 158.388C189.908 158.388 188.955 168.829 187.063 179.262C185.172 189.695 180.42 188.434 167.765 187.804C155.11 187.174 141.517 191.917 136.143 196.338C130.769 200.759 103.228 209.269 103.228 209.269C103.228 209.269 97.2156 184.282 96.5852 181.752C95.9548 179.223 95.348 168.474 95.348 162.147C95.348 155.819 97.5623 144.748 98.1927 139.374C98.8231 133.999 83.9614 132.416 83.3231 134.945C82.6848 137.474 78.9024 170.05 76.0499 183.013C73.1973 195.976 74.7891 212.421 74.4739 224.438C74.1587 236.455 78.2642 241.837 83.3231 241.207C88.3821 240.576 104.836 238.993 120.966 237.724C137.096 236.455 151.958 228.268 151.958 228.268L154.172 228.583C154.172 228.583 145.622 241.215 146.568 249.434C147.514 257.652 153.526 263.35 155.425 265.564C157 267.645 158.377 269.869 159.538 272.207C159.538 272.207 161.114 281.663 158.27 285.169C155.425 288.676 145.662 305.728 140.879 325.357C137.167 340.692 138.294 361.054 138.964 369.202" fill="#CCCCCC"/>
<mask id="mask0_806_40" style="mask-type:luminance" maskUnits="userSpaceOnUse" x="74" y="94" width="254" height="276">
<path d="M271.734 369.178C272.065 362.181 272.159 346.066 267.384 331.031C261.08 311.102 248.409 284.224 245.564 279.811C242.72 275.398 245.564 270.355 245.564 270.355C249.326 259.187 251.767 247.616 252.838 235.88C252.838 235.88 254.414 236.518 258.842 240.608C263.271 244.698 303.096 269.165 309.416 270.434C315.736 271.702 325.137 268.645 327.351 264.216C329.565 259.788 285.729 213.729 274.027 202.343C262.325 190.956 233.839 192.887 229.111 190.01C224.383 187.134 224.044 183.368 227.212 171.351C230.38 159.334 240.813 148.262 242.074 138.459C243.334 128.657 236.069 109.682 219.623 99.8475C203.178 90.0132 191.484 95.7341 191.484 95.7341C191.484 95.7341 182.312 103.614 181.043 109.65C179.774 115.686 180.413 117.869 176.315 120.399C172.217 122.928 165.882 121.975 166.512 124.197C167.143 126.419 168.727 131.785 171.886 132.077C171.886 132.077 167.458 136.19 168.411 138.089C168.987 139.273 169.309 140.564 169.357 141.879C169.357 141.879 168.411 144.409 169.357 146.308C169.963 147.539 170.489 148.808 170.933 150.106C170.933 150.106 171.879 156.41 176.622 157.695C181.366 158.979 189.908 158.388 189.908 158.388C189.908 158.388 188.955 168.829 187.063 179.262C185.172 189.695 180.42 188.434 167.765 187.804C155.11 187.174 141.517 191.917 136.143 196.338C130.769 200.759 103.228 209.269 103.228 209.269C103.228 209.269 97.2156 184.282 96.5852 181.752C95.9548 179.223 95.348 168.474 95.348 162.147C95.348 155.819 97.5623 144.748 98.1927 139.374C98.8231 133.999 83.9614 132.416 83.3231 134.945C82.6848 137.474 78.9024 170.05 76.0499 183.013C73.1973 195.976 74.7891 212.421 74.4739 224.438C74.1587 236.455 78.2642 241.837 83.3231 241.207C88.3821 240.576 104.836 238.993 120.966 237.724C137.096 236.455 151.958 228.268 151.958 228.268L154.172 228.583C154.172 228.583 145.622 241.215 146.568 249.434C147.514 257.652 153.526 263.35 155.425 265.564C157 267.645 158.377 269.869 159.538 272.207C159.538 272.207 161.114 281.663 158.27 285.169C155.425 288.676 145.662 305.728 140.879 325.357C137.167 340.692 138.294 361.054 138.964 369.202" fill="white"/>
</mask>
<g mask="url(#mask0_806_40)">
<g opacity="0.2">
<path d="M138.885 211.31C133.298 210.451 119.973 222.484 108.374 228.496C96.7743 234.509 86.4515 232.799 79.5801 231.94C77.9165 231.733 76.2904 231.293 74.7497 230.632C75.7583 238.307 79.2255 241.719 83.3152 241.215C88.3821 240.576 104.828 239 120.958 237.732C137.088 236.463 151.95 228.276 151.95 228.276L154.164 228.591C154.164 228.591 152.84 230.553 151.296 233.421C154.448 232.121 156.938 231.113 156.938 231.113C156.938 231.113 144.472 212.169 138.885 211.31Z" fill="black"/>
<path d="M274.027 202.311C268.401 196.842 258.921 194.431 250.048 193.107C240.45 191.657 231.577 191.46 229.111 189.955C224.383 187.111 224.044 183.312 227.212 171.295C230.38 159.278 240.813 148.207 242.074 138.404C243.334 128.602 236.069 109.627 219.623 99.7923C203.178 89.9581 191.484 95.7341 191.484 95.7341C191.484 95.7341 190.192 96.8452 188.513 98.5473C190.877 104.284 199.269 124.275 205.503 130.509C212.815 137.813 210.664 147.269 205.077 150.705C199.49 154.141 176.614 157.718 176.614 157.718L207.654 157.584L217.535 180.791C217.535 180.791 204.218 201.854 211.948 211.736C219.679 221.617 245.478 231.507 260.087 215.179C261.968 212.946 263.508 210.448 264.658 207.764C274.35 217.512 286.391 229.655 295.327 238.811C309.203 252.995 318.273 261.908 321.512 268.818C324.215 267.66 326.421 266.052 327.351 264.185C329.565 259.764 285.729 213.698 274.027 202.311Z" fill="black"/>
<path d="M245.564 279.795C242.712 275.367 245.564 270.339 245.564 270.339C249.326 259.171 251.767 247.6 252.838 235.864C253.003 235.941 253.163 236.028 253.318 236.124C247.093 231.183 237.732 224.099 236.881 225.526C235.588 227.669 237.306 236.266 238.165 247.873C239.024 259.481 228.709 275.374 234.729 286.982C240.75 298.589 260.521 312.34 268.684 335.98L268.968 336.768C268.511 334.853 267.983 332.938 267.392 331.039C261.057 311.102 248.409 284.224 245.564 279.795Z" fill="black"/>
</g>
</g>
<path d="M271.734 369.178C272.065 362.181 272.159 346.066 267.384 331.031C261.08 311.102 248.409 284.224 245.564 279.811C242.72 275.398 245.564 270.355 245.564 270.355C249.326 259.187 251.767 247.616 252.838 235.88C252.838 235.88 254.414 236.518 258.842 240.608C263.271 244.698 303.096 269.165 309.416 270.434C315.736 271.702 325.137 268.645 327.351 264.216C329.565 259.788 285.729 213.729 274.027 202.343C262.325 190.956 233.839 192.887 229.111 190.01C224.383 187.134 224.044 183.368 227.212 171.351C230.38 159.334 240.813 148.262 242.074 138.459C243.334 128.657 236.069 109.682 219.623 99.8475C203.178 90.0132 191.484 95.7341 191.484 95.7341C191.484 95.7341 182.312 103.614 181.043 109.65C179.774 115.686 180.413 117.869 176.315 120.399C172.217 122.928 165.882 121.975 166.512 124.197C167.143 126.419 168.727 131.785 171.886 132.077C171.886 132.077 167.458 136.19 168.411 138.089C168.987 139.273 169.309 140.564 169.357 141.879C169.357 141.879 168.411 144.409 169.357 146.308C169.963 147.539 170.489 148.808 170.933 150.106C170.933 150.106 171.879 156.41 176.622 157.695C181.366 158.979 189.908 158.388 189.908 158.388C189.908 158.388 188.955 168.829 187.063 179.262C185.172 189.695 180.42 188.434 167.765 187.804C155.11 187.174 141.517 191.917 136.143 196.338C130.769 200.759 103.228 209.269 103.228 209.269C103.228 209.269 97.2156 184.282 96.5852 181.752C95.9548 179.223 95.348 168.474 95.348 162.147C95.348 155.819 97.5623 144.748 98.1927 139.374C98.8231 133.999 83.9614 132.416 83.3231 134.945C82.6848 137.474 78.9024 170.05 76.0499 183.013C73.1973 195.976 74.7891 212.421 74.4739 224.438C74.1587 236.455 78.2642 241.837 83.3231 241.207C88.3821 240.576 104.836 238.993 120.966 237.724C137.096 236.455 151.958 228.268 151.958 228.268L154.172 228.583C154.172 228.583 145.622 241.215 146.568 249.434C147.514 257.652 153.526 263.35 155.425 265.564C157 267.645 158.377 269.869 159.538 272.207C159.538 272.207 161.114 281.663 158.27 285.169C155.425 288.676 145.662 305.728 140.879 325.357C137.167 340.692 138.294 361.054 138.964 369.202" stroke="#263238" stroke-linecap="round" stroke-linejoin="round"/>
<path d="M185.464 120.154L183.446 121.667C183.446 121.667 185.968 126.703 192.761 121.415C192.761 121.415 187.977 121.667 185.464 120.154Z" fill="#263238" stroke="#263238" stroke-linecap="round" stroke-linejoin="round"/>
<path d="M186.22 111.108C186.22 111.108 190.499 106.829 195.786 113.874" stroke="#263238" stroke-width="2" stroke-linecap="round" stroke-linejoin="round"/>
<path d="M184.455 127.711C186.991 126.963 189.677 126.876 192.256 127.459" stroke="#263238" stroke-width="0.5" stroke-linecap="round" stroke-linejoin="round"/>
<path d="M185.968 128.964C188.38 128.524 190.852 128.524 193.265 128.964" stroke="#263238" stroke-width="0.5" stroke-linecap="round" stroke-linejoin="round"/>
<path d="M169.176 193.738L192.02 197.969" stroke="#263238" stroke-linecap="round" stroke-linejoin="round"/>
<path d="M220.79 196.275L202.169 197.969" stroke="#263238" stroke-linecap="round" stroke-linejoin="round"/>
<path d="M241.522 228.008L252.838 235.833L239.828 231.814" stroke="#263238" stroke-linecap="round" stroke-linejoin="round"/>
<path d="M151.95 228.244L140.406 219.545" stroke="#263238" stroke-linecap="round" stroke-linejoin="round"/>
<path d="M103.228 209.269C103.228 209.269 99.351 217.007 92.1566 220.396" stroke="#263238" stroke-linecap="round" stroke-linejoin="round"/>
<path d="M170.323 131.901L160.925 130.598L159.579 140.308L168.977 141.611L170.323 131.901Z" fill="white" stroke="#263238" stroke-linecap="round" stroke-linejoin="round"/>
<path d="M156.394 119.595L140.185 117.349C139.994 117.228 139.779 117.151 139.555 117.12C139.119 117.06 138.677 117.174 138.326 117.438C137.974 117.703 137.742 118.096 137.679 118.531L137.545 119.547H137.388L137.53 118.531C137.559 118.315 137.546 118.096 137.491 117.885C137.435 117.675 137.339 117.477 137.207 117.303C137.076 117.13 136.911 116.984 136.723 116.874C136.535 116.765 136.327 116.693 136.111 116.663C135.895 116.634 135.676 116.647 135.465 116.703C135.255 116.758 135.057 116.854 134.884 116.986C134.71 117.118 134.564 117.282 134.455 117.47C134.345 117.658 134.273 117.866 134.244 118.082L134.102 119.098H133.952L134.086 118.082C134.116 117.867 134.103 117.648 134.049 117.437C133.994 117.227 133.899 117.029 133.768 116.856C133.637 116.682 133.473 116.537 133.285 116.426C133.098 116.316 132.891 116.244 132.676 116.214C132.449 116.182 132.218 116.198 131.998 116.262L108.161 112.96C107.967 112.838 107.749 112.76 107.523 112.731C107.307 112.701 107.088 112.714 106.878 112.769C106.668 112.823 106.47 112.919 106.297 113.05C106.123 113.181 105.977 113.345 105.867 113.532C105.757 113.719 105.685 113.927 105.655 114.142L105.513 115.158H105.356L105.497 114.142C105.532 113.924 105.524 113.702 105.471 113.487C105.419 113.273 105.325 113.071 105.193 112.894C105.062 112.717 104.897 112.568 104.707 112.455C104.517 112.343 104.307 112.27 104.088 112.24C103.87 112.21 103.647 112.224 103.434 112.281C103.221 112.338 103.022 112.437 102.848 112.573C102.674 112.708 102.529 112.877 102.421 113.069C102.313 113.262 102.244 113.474 102.219 113.693L102.078 114.701H101.92L102.062 113.685C102.12 113.249 102.004 112.808 101.738 112.458C101.472 112.108 101.079 111.878 100.643 111.817C100.419 111.785 100.191 111.801 99.9736 111.864L76.1996 108.484C75.4183 108.375 74.6231 108.421 73.8596 108.62C73.0961 108.818 72.3792 109.165 71.7499 109.641C71.1205 110.116 70.5911 110.711 70.1918 111.392C69.7925 112.072 69.5312 112.825 69.4228 113.606L66.9012 131.777C66.6835 133.356 67.1015 134.957 68.0634 136.227C69.0253 137.498 70.4524 138.335 72.0311 138.554L95.5923 141.824C95.8313 142.022 96.1204 142.15 96.4276 142.195C96.6428 142.225 96.8619 142.212 97.0722 142.157C97.2825 142.103 97.4801 142.007 97.6535 141.876C97.8269 141.745 97.9728 141.581 98.0829 141.394C98.193 141.207 98.2651 140.999 98.2951 140.784L98.5 139.295H98.6576L98.4527 140.784C98.4177 141.002 98.4266 141.224 98.4788 141.439C98.5311 141.653 98.6256 141.855 98.7569 142.032C98.8882 142.209 99.0536 142.358 99.2433 142.471C99.4331 142.583 99.6434 142.656 99.8619 142.686C100.08 142.716 100.303 142.702 100.516 142.645C100.729 142.588 100.928 142.489 101.102 142.353C101.276 142.218 101.422 142.049 101.53 141.857C101.638 141.664 101.706 141.452 101.731 141.233L101.936 139.752H102.093L101.888 141.233C101.858 141.448 101.871 141.668 101.926 141.878C101.98 142.088 102.076 142.286 102.207 142.459C102.338 142.633 102.502 142.779 102.689 142.889C102.876 142.999 103.084 143.071 103.299 143.101C103.608 143.147 103.923 143.1 104.205 142.967L127.656 146.261C127.88 146.454 128.153 146.582 128.444 146.631C128.659 146.662 128.879 146.65 129.09 146.596C129.3 146.542 129.498 146.446 129.672 146.315C129.846 146.184 129.992 146.02 130.101 145.832C130.211 145.644 130.283 145.436 130.312 145.221L130.524 143.739H130.674L130.469 145.228C130.44 145.444 130.453 145.664 130.508 145.874C130.564 146.085 130.66 146.283 130.792 146.456C130.923 146.629 131.088 146.775 131.276 146.885C131.464 146.995 131.672 147.066 131.888 147.096C132.103 147.125 132.323 147.112 132.533 147.057C132.744 147.002 132.942 146.905 133.115 146.774C133.289 146.642 133.434 146.477 133.544 146.289C133.654 146.101 133.726 145.893 133.755 145.678L133.96 144.204H134.118L133.905 145.685C133.846 146.121 133.963 146.562 134.229 146.912C134.494 147.262 134.888 147.492 135.323 147.553C135.632 147.599 135.947 147.552 136.229 147.419L152.218 149.633C152.999 149.742 153.794 149.696 154.558 149.498C155.321 149.299 156.038 148.952 156.668 148.477C157.297 148.001 157.826 147.406 158.226 146.725C158.625 146.045 158.886 145.293 158.995 144.511L161.516 126.34C161.723 124.768 161.301 123.177 160.342 121.914C159.383 120.651 157.964 119.818 156.394 119.595Z" fill="white"/>
<mask id="mask1_806_40" style="mask-type:luminance" maskUnits="userSpaceOnUse" x="66" y="108" width="96" height="42">
<path d="M156.394 119.595L140.185 117.349C139.994 117.228 139.779 117.151 139.555 117.12C139.119 117.06 138.677 117.174 138.326 117.438C137.974 117.703 137.742 118.096 137.679 118.531L137.545 119.547H137.388L137.53 118.531C137.559 118.315 137.546 118.096 137.491 117.885C137.435 117.675 137.339 117.477 137.207 117.303C137.076 117.13 136.911 116.984 136.723 116.874C136.535 116.765 136.327 116.693 136.111 116.663C135.895 116.634 135.676 116.647 135.465 116.703C135.255 116.758 135.057 116.854 134.884 116.986C134.71 117.118 134.564 117.282 134.455 117.47C134.345 117.658 134.273 117.866 134.244 118.082L134.102 119.098H133.952L134.086 118.082C134.116 117.867 134.103 117.648 134.049 117.437C133.994 117.227 133.899 117.029 133.768 116.856C133.637 116.682 133.473 116.537 133.285 116.426C133.098 116.316 132.891 116.244 132.676 116.214C132.449 116.182 132.218 116.198 131.998 116.262L108.161 112.96C107.967 112.838 107.749 112.76 107.523 112.731C107.307 112.701 107.088 112.714 106.878 112.769C106.668 112.823 106.47 112.919 106.297 113.05C106.123 113.181 105.977 113.345 105.867 113.532C105.757 113.719 105.685 113.927 105.655 114.142L105.513 115.158H105.356L105.497 114.142C105.532 113.924 105.524 113.702 105.471 113.487C105.419 113.273 105.325 113.071 105.193 112.894C105.062 112.717 104.897 112.568 104.707 112.455C104.517 112.343 104.307 112.27 104.088 112.24C103.87 112.21 103.647 112.224 103.434 112.281C103.221 112.338 103.022 112.437 102.848 112.573C102.674 112.708 102.529 112.877 102.421 113.069C102.313 113.262 102.244 113.474 102.219 113.693L102.078 114.701H101.92L102.062 113.685C102.12 113.249 102.004 112.808 101.738 112.458C101.472 112.108 101.079 111.878 100.643 111.817C100.419 111.785 100.191 111.801 99.9736 111.864L76.1996 108.484C75.4183 108.375 74.6231 108.421 73.8596 108.62C73.0961 108.818 72.3792 109.165 71.7499 109.641C71.1205 110.116 70.5911 110.711 70.1918 111.392C69.7925 112.072 69.5312 112.825 69.4228 113.606L66.9012 131.777C66.6835 133.356 67.1015 134.957 68.0634 136.227C69.0253 137.498 70.4524 138.335 72.0311 138.554L95.5923 141.824C95.8313 142.022 96.1204 142.15 96.4276 142.195C96.6428 142.225 96.8619 142.212 97.0722 142.157C97.2825 142.103 97.4801 142.007 97.6535 141.876C97.8269 141.745 97.9728 141.581 98.0829 141.394C98.193 141.207 98.2651 140.999 98.2951 140.784L98.5 139.295H98.6576L98.4527 140.784C98.4177 141.002 98.4266 141.224 98.4788 141.439C98.5311 141.653 98.6256 141.855 98.7569 142.032C98.8882 142.209 99.0536 142.358 99.2433 142.471C99.4331 142.583 99.6434 142.656 99.8619 142.686C100.08 142.716 100.303 142.702 100.516 142.645C100.729 142.588 100.928 142.489 101.102 142.353C101.276 142.218 101.422 142.049 101.53 141.857C101.638 141.664 101.706 141.452 101.731 141.233L101.936 139.752H102.093L101.888 141.233C101.858 141.448 101.871 141.668 101.926 141.878C101.98 142.088 102.076 142.286 102.207 142.459C102.338 142.633 102.502 142.779 102.689 142.889C102.876 142.999 103.084 143.071 103.299 143.101C103.608 143.147 103.923 143.1 104.205 142.967L127.656 146.261C127.88 146.454 128.153 146.582 128.444 146.631C128.659 146.662 128.879 146.65 129.09 146.596C129.3 146.542 129.498 146.446 129.672 146.315C129.846 146.184 129.992 146.02 130.101 145.832C130.211 145.644 130.283 145.436 130.312 145.221L130.524 143.739H130.674L130.469 145.228C130.44 145.444 130.453 145.664 130.508 145.874C130.564 146.085 130.66 146.283 130.792 146.456C130.923 146.629 131.088 146.775 131.276 146.885C131.464 146.995 131.672 147.066 131.888 147.096C132.103 147.125 132.323 147.112 132.533 147.057C132.744 147.002 132.942 146.905 133.115 146.774C133.289 146.642 133.434 146.477 133.544 146.289C133.654 146.101 133.726 145.893 133.755 145.678L133.96 144.204H134.118L133.905 145.685C133.846 146.121 133.963 146.562 134.229 146.912C134.494 147.262 134.888 147.492 135.323 147.553C135.632 147.599 135.947 147.552 136.229 147.419L152.218 149.633C152.999 149.742 153.794 149.696 154.558 149.498C155.321 149.299 156.038 148.952 156.668 148.477C157.297 148.001 157.826 147.406 158.226 146.725C158.625 146.045 158.886 145.293 158.995 144.511L161.516 126.34C161.723 124.768 161.301 123.177 160.342 121.914C159.383 120.651 157.964 119.818 156.394 119.595Z" fill="white"/>
</mask>
<g mask="url(#mask1_806_40)">
<path d="M67.8547 130.461L123.803 116.797L152.959 120.737C154.665 120.967 156.211 121.862 157.259 123.228C158.308 124.594 158.773 126.319 158.553 128.026L156.741 142.013C156.63 142.873 156.349 143.702 155.913 144.452C155.477 145.201 154.896 145.856 154.204 146.378C153.512 146.9 152.723 147.278 151.882 147.491C151.042 147.703 150.167 147.746 149.31 147.616L75.1279 136.363C73.5 136.116 71.9677 135.438 70.6891 134.401C69.4105 133.363 68.4321 132.003 67.8547 130.461Z" fill="#407BFF"/>
<path d="M83.2916 133.235C83.2916 133.235 87.0976 131.123 89.5956 129.855C92.0936 128.586 101.865 128.16 101.865 128.16L110.328 116.734" stroke="#263238" stroke-linecap="round" stroke-linejoin="round"/>
<path d="M126.442 121.817L120.099 136.623" stroke="#263238" stroke-linecap="round" stroke-linejoin="round"/>
</g>
<path d="M156.394 119.595L140.185 117.349C139.994 117.228 139.779 117.151 139.555 117.12C139.119 117.06 138.677 117.174 138.326 117.438C137.974 117.703 137.742 118.096 137.679 118.531L137.545 119.547H137.388L137.53 118.531C137.559 118.315 137.546 118.096 137.491 117.885C137.435 117.675 137.339 117.477 137.207 117.303C137.076 117.13 136.911 116.984 136.723 116.874C136.535 116.765 136.327 116.693 136.111 116.663C135.895 116.634 135.676 116.647 135.465 116.703C135.255 116.758 135.057 116.854 134.884 116.986C134.71 117.118 134.565 117.282 134.455 117.47C134.345 117.658 134.273 117.866 134.244 118.082L134.102 119.098H133.952L134.086 118.082C134.116 117.867 134.103 117.648 134.049 117.437C133.994 117.227 133.899 117.029 133.768 116.856C133.637 116.682 133.473 116.537 133.285 116.426C133.098 116.316 132.891 116.244 132.676 116.214C132.449 116.182 132.218 116.198 131.998 116.262L108.161 112.96C107.967 112.838 107.749 112.76 107.523 112.731C107.307 112.701 107.088 112.714 106.878 112.769C106.668 112.823 106.47 112.919 106.297 113.05C106.123 113.181 105.977 113.345 105.867 113.532C105.757 113.719 105.685 113.927 105.655 114.142L105.513 115.158H105.356L105.497 114.142C105.532 113.924 105.524 113.702 105.471 113.487C105.419 113.273 105.325 113.071 105.193 112.894C105.062 112.717 104.897 112.568 104.707 112.455C104.517 112.343 104.307 112.27 104.088 112.24C103.87 112.21 103.647 112.224 103.434 112.281C103.221 112.338 103.022 112.437 102.848 112.573C102.674 112.708 102.529 112.877 102.421 113.069C102.313 113.262 102.244 113.474 102.219 113.693L102.078 114.701H101.92L102.062 113.685C102.12 113.249 102.004 112.808 101.738 112.458C101.472 112.108 101.079 111.878 100.643 111.817C100.419 111.785 100.191 111.801 99.9736 111.864L76.1996 108.484C75.4183 108.375 74.6231 108.421 73.8596 108.62C73.0961 108.818 72.3792 109.165 71.7499 109.641C71.1205 110.116 70.5911 110.711 70.1918 111.392C69.7925 112.072 69.5312 112.825 69.4228 113.606L66.9012 131.777C66.6835 133.356 67.1015 134.957 68.0634 136.227C69.0253 137.498 70.4524 138.335 72.0311 138.554L95.5923 141.824C95.8313 142.022 96.1204 142.15 96.4276 142.195C96.6428 142.225 96.8619 142.212 97.0722 142.157C97.2825 142.103 97.4801 142.007 97.6535 141.876C97.8269 141.745 97.9728 141.581 98.0829 141.394C98.193 141.207 98.2651 140.999 98.2951 140.784L98.5 139.295H98.6576L98.4527 140.784C98.4177 141.002 98.4266 141.224 98.4788 141.439C98.5311 141.653 98.6256 141.855 98.7569 142.032C98.8882 142.209 99.0536 142.358 99.2433 142.471C99.4331 142.583 99.6434 142.656 99.8619 142.686C100.08 142.716 100.303 142.702 100.516 142.645C100.729 142.588 100.928 142.489 101.102 142.353C101.276 142.218 101.422 142.049 101.53 141.857C101.638 141.664 101.706 141.452 101.731 141.233L101.936 139.752H102.093L101.888 141.233C101.858 141.448 101.871 141.668 101.926 141.878C101.98 142.088 102.076 142.286 102.207 142.459C102.338 142.633 102.502 142.779 102.689 142.889C102.876 142.999 103.084 143.071 103.299 143.101C103.608 143.147 103.923 143.1 104.205 142.967L127.656 146.261C127.88 146.454 128.153 146.582 128.444 146.631C128.659 146.662 128.879 146.65 129.09 146.596C129.3 146.542 129.498 146.446 129.672 146.315C129.846 146.184 129.992 146.02 130.101 145.832C130.211 145.644 130.283 145.436 130.312 145.221L130.524 143.739H130.674L130.469 145.228C130.44 145.444 130.453 145.664 130.508 145.874C130.564 146.085 130.66 146.283 130.792 146.456C130.923 146.629 131.088 146.775 131.276 146.885C131.464 146.995 131.672 147.066 131.888 147.096C132.103 147.125 132.323 147.112 132.533 147.057C132.744 147.002 132.942 146.905 133.115 146.774C133.289 146.642 133.434 146.477 133.544 146.289C133.654 146.101 133.726 145.893 133.755 145.678L133.96 144.204H134.118L133.905 145.685C133.846 146.121 133.963 146.562 134.229 146.912C134.494 147.262 134.888 147.492 135.323 147.553C135.632 147.599 135.947 147.552 136.229 147.419L152.218 149.633C152.999 149.742 153.794 149.696 154.558 149.498C155.321 149.299 156.038 148.952 156.668 148.477C157.297 148.001 157.826 147.406 158.226 146.725C158.625 146.045 158.886 145.293 158.995 144.511L161.516 126.34C161.723 124.768 161.301 123.177 160.342 121.914C159.383 120.651 157.964 119.818 156.394 119.595Z" stroke="#263238" stroke-linecap="round" stroke-linejoin="round"/>
<path d="M137.388 119.524L133.968 144.212" stroke="#263238" stroke-linecap="round" stroke-linejoin="round"/>
<path d="M134.102 119.075L130.682 143.755" stroke="#263238" stroke-linecap="round" stroke-linejoin="round"/>
<path d="M105.356 115.087L101.936 139.775" stroke="#263238" stroke-linecap="round" stroke-linejoin="round"/>
<path d="M102.078 114.63L98.6576 139.318" stroke="#263238" stroke-linecap="round" stroke-linejoin="round"/>
<path d="M162.864 131.021L161.548 140.548" stroke="#263238" stroke-linecap="round" stroke-linejoin="round"/>
<path d="M164.739 131.281L163.415 140.808" stroke="#263238" stroke-linecap="round" stroke-linejoin="round"/>
<path d="M166.615 131.541L165.291 141.068" stroke="#263238" stroke-linecap="round" stroke-linejoin="round"/>
<path d="M146.568 249.434C147.521 257.66 153.526 263.35 155.425 265.564C157 267.645 158.377 269.869 159.538 272.207C160.002 275.152 160.078 278.146 159.767 281.111C162.998 281.426 168.514 286.249 198.442 287.415C217.133 288.132 240.206 282.774 246.092 280.717C245.895 280.363 245.714 280.055 245.564 279.827C242.712 275.398 245.564 270.371 245.564 270.371C247.802 263.87 249.551 257.211 250.797 250.45C246.486 250.348 233.413 249.079 228.165 237.795C222.846 226.353 232.752 199.679 236.045 191.516C232.767 191.129 230.269 190.728 229.143 190.042L228.993 189.94C226.771 197.567 220.207 218.93 214.273 226.408C207 235.58 193.399 237.795 182.651 233.366C171.902 228.938 169.68 219.765 170.949 213.446C171.949 208.434 179.9 193.099 183.155 186.945C181.681 187.867 179.782 188.19 177.316 188.23L154.188 228.622C154.188 228.622 145.622 241.215 146.568 249.434Z" fill="#263238" stroke="#263238" stroke-linecap="round" stroke-linejoin="round"/>
<path d="M189.443 270.284C200.887 275.038 213.491 276.262 225.636 273.798" stroke="#828282" stroke-linecap="round" stroke-linejoin="round"/>
<path d="M179.782 264.933C180.819 265.712 181.903 266.425 183.029 267.069" stroke="#828282" stroke-linecap="round" stroke-linejoin="round"/>
<path d="M203.666 76.3414C200.17 76.5376 196.752 77.4551 193.627 79.0364C189.018 81.4556 183.919 86.0732 186.74 94.1502C191.468 107.751 207.291 125.457 212.673 127.041C215.936 128.013 219.101 129.284 222.129 130.84C222.129 130.84 226.857 139.689 220.861 158.987C214.864 178.285 207.898 187.765 213.587 201.366C219.277 214.966 237.937 223.185 259.764 218.126C281.592 213.067 287.596 200.412 283.483 185.866C279.37 171.319 268.298 169.735 268.613 161.193C268.929 152.651 277.471 153.92 270.828 142.857C264.185 131.793 257.046 132.794 257.046 126.781C257.046 120.769 261.978 107.751 255.966 97.3101C250.308 87.468 227.306 74.7024 203.666 76.3414Z" fill="#263238"/>
<mask id="mask2_806_40" style="mask-type:luminance" maskUnits="userSpaceOnUse" x="185" y="76" width="100" height="144">
<path d="M203.666 76.3414C200.17 76.5376 196.752 77.4551 193.627 79.0364C189.018 81.4556 183.919 86.0732 186.74 94.1502C191.468 107.751 207.291 125.457 212.673 127.041C215.936 128.013 219.101 129.284 222.129 130.84C222.129 130.84 226.857 139.689 220.861 158.987C214.864 178.285 207.898 187.765 213.587 201.366C219.277 214.966 237.937 223.185 259.764 218.126C281.592 213.067 287.596 200.412 283.483 185.866C279.37 171.319 268.298 169.735 268.613 161.193C268.929 152.651 277.471 153.92 270.828 142.857C264.185 131.793 257.046 132.794 257.046 126.781C257.046 120.769 261.978 107.751 255.966 97.3101C250.308 87.468 227.306 74.7024 203.666 76.3414Z" fill="white"/>
</mask>
<g mask="url(#mask2_806_40)">
<path d="M186.299 81.5186C186.299 81.5186 197.189 105.576 216.944 117.767C236.699 129.957 258.464 127.104 258.464 127.104" stroke="#828282" stroke-linecap="round" stroke-linejoin="round"/>
<path d="M199.214 74.4266C199.214 74.4266 221.499 118.492 239.993 122.794C258.488 127.097 260.481 125.079 260.481 125.079" stroke="#828282" stroke-linecap="round" stroke-linejoin="round"/>
<path d="M225.849 87.8699C231.026 99.2959 238.993 114.425 246.337 118.239C258.496 124.543 263.302 120.265 263.302 120.265" stroke="#828282" stroke-linecap="round" stroke-linejoin="round"/>
<path d="M220.238 74.4266C220.238 74.4266 221.538 77.9332 223.697 82.9764" stroke="#828282" stroke-linecap="round" stroke-linejoin="round"/>
<path d="M229.103 123.811C229.103 123.811 242.271 136.726 240.75 151.919C239.229 167.111 231.672 173.36 229.119 189.979C226.566 206.598 237.204 218.528 249.867 218.016C262.53 217.504 260.505 203.044 252.396 201.05C244.288 199.057 242.775 206.874 246.321 209.411C249.867 211.948 251.892 208.394 251.892 207.638" stroke="#828282" stroke-linecap="round" stroke-linejoin="round"/>
<path d="M240.498 126.868C240.498 126.868 249.867 134.969 249.867 150.413C249.867 165.858 245.312 168.396 247.337 177.261C249.363 186.126 260.733 183.848 265.572 194.991C270.41 206.133 267.597 214.746 262.53 218.544" stroke="#828282" stroke-linecap="round" stroke-linejoin="round"/>
<path d="M250.119 127.609C250.119 127.609 262.53 136.474 264.807 148.373C267.085 160.271 252.909 157.49 262.026 173.447C271.143 189.404 290.638 191.933 281.269 208.394" stroke="#828282" stroke-linecap="round" stroke-linejoin="round"/>
</g>
<path d="M203.666 76.3414C200.17 76.5376 196.752 77.4551 193.627 79.0364C189.018 81.4556 183.919 86.0732 186.74 94.1502C191.468 107.751 207.291 125.457 212.673 127.041C215.936 128.013 219.101 129.284 222.129 130.84C222.129 130.84 226.857 139.689 220.861 158.987C214.864 178.285 207.898 187.765 213.587 201.366C219.277 214.966 237.937 223.185 259.764 218.126C281.592 213.067 287.596 200.412 283.483 185.866C279.37 171.319 268.298 169.735 268.613 161.193C268.929 152.651 277.471 153.92 270.828 142.857C264.185 131.793 257.046 132.794 257.046 126.781C257.046 120.769 261.978 107.751 255.966 97.3101C250.308 87.468 227.306 74.7024 203.666 76.3414Z" stroke="#263238" stroke-linecap="round" stroke-linejoin="round"/>
<path d="M189.908 158.388C189.908 158.388 189.727 160.374 189.364 163.478L207.614 156.174L189.908 158.388Z" fill="#263238" stroke="#263238" stroke-linecap="round" stroke-linejoin="round"/>
<path d="M271.734 369.178C272.065 362.181 272.159 346.066 267.384 331.031C265.69 325.696 263.547 319.865 261.254 314.097C253.153 317.596 234.659 323.947 203.816 325.972C172.375 328.037 152.596 319.282 144.117 314.317C142.904 317.848 141.801 321.543 140.879 325.349C137.167 340.684 138.294 361.046 138.964 369.194" fill="#407BFF"/>
<path d="M271.734 369.178C272.065 362.181 272.159 346.066 267.384 331.031C265.69 325.696 263.547 319.865 261.254 314.097C253.153 317.596 234.659 323.947 203.816 325.972C172.375 328.037 152.596 319.282 144.117 314.317C142.904 317.848 141.801 321.543 140.879 325.349C137.167 340.684 138.294 361.046 138.964 369.194" stroke="#263238" stroke-linecap="round" stroke-linejoin="round"/>
<path d="M223.366 319.235L200.562 357.949" stroke="#263238" stroke-linecap="round" stroke-linejoin="round"/>
<path d="M154.448 314.995C154.448 314.995 158.159 329.313 166.646 341.511" stroke="#263238" stroke-linecap="round" stroke-linejoin="round"/>
<path d="M300.055 259.157C300.055 259.157 272.475 296.241 267.699 296.556C262.924 296.871 251.254 285.169 250.308 285.808C249.363 286.446 233.547 306.997 231.01 310.157C228.473 313.317 234.162 310.787 234.162 310.787C234.162 310.787 232.263 315.846 234.162 316.161C236.061 316.477 239.221 314.27 239.221 314.27C239.221 314.27 238.591 318.699 240.482 318.06C242.373 317.422 246.179 314.27 246.179 314.27C246.179 314.27 242.696 318.699 245.549 318.06C248.401 317.422 257.881 310.18 257.881 310.18C257.881 310.18 261.671 317.454 269.583 314.609C277.494 311.764 328.375 271.371 328.683 266.628C328.99 261.884 319.857 252.223 319.857 252.223" fill="#CCCCCC"/>
<mask id="mask3_806_40" style="mask-type:luminance" maskUnits="userSpaceOnUse" x="230" y="252" width="99" height="67">
<path d="M300.055 259.157C300.055 259.157 272.475 296.241 267.699 296.556C262.924 296.871 251.254 285.169 250.308 285.808C249.363 286.446 233.547 306.997 231.01 310.157C228.473 313.317 234.162 310.787 234.162 310.787C234.162 310.787 232.263 315.846 234.162 316.161C236.061 316.477 239.221 314.27 239.221 314.27C239.221 314.27 238.591 318.699 240.482 318.06C242.373 317.422 246.179 314.27 246.179 314.27C246.179 314.27 242.696 318.699 245.549 318.06C248.401 317.422 257.881 310.18 257.881 310.18C257.881 310.18 261.671 317.454 269.583 314.609C277.494 311.764 328.375 271.371 328.683 266.628C328.99 261.884 319.857 252.223 319.857 252.223" fill="white"/>
</mask>
<g mask="url(#mask3_806_40)">
<path opacity="0.2" d="M328.706 266.604C329.029 261.876 319.006 251.12 319.006 251.12L311.662 254.232L310.708 254.737C310.708 254.737 318.541 259.875 314.239 268.472C309.936 277.069 278.566 306.296 272.553 309.298C266.541 312.3 262.239 307.58 258.795 308.006C256.99 308.234 253.744 311.678 251.017 315.098C254.406 312.852 257.897 310.173 257.897 310.173C257.897 310.173 261.687 317.446 269.598 314.601C277.51 311.756 328.391 271.348 328.706 266.604Z" fill="black"/>
</g>
<path d="M300.055 259.157C300.055 259.157 272.475 296.241 267.699 296.556C262.924 296.871 251.254 285.169 250.308 285.808C249.363 286.446 233.547 306.997 231.01 310.157C228.473 313.317 234.162 310.787 234.162 310.787C234.162 310.787 232.263 315.846 234.162 316.161C236.061 316.477 239.221 314.27 239.221 314.27C239.221 314.27 238.591 318.699 240.482 318.06C242.373 317.422 246.179 314.27 246.179 314.27C246.179 314.27 242.696 318.699 245.549 318.06C248.401 317.422 257.881 310.18 257.881 310.18C257.881 310.18 261.671 317.454 269.583 314.609C277.494 311.764 328.375 271.371 328.683 266.628C328.99 261.884 319.857 252.223 319.857 252.223" stroke="#263238" stroke-linecap="round" stroke-linejoin="round"/>
<path d="M246.195 314.27L255.998 304.144" stroke="#263238" stroke-linecap="round" stroke-linejoin="round"/>
<path d="M239.237 314.27L251.569 300.354" stroke="#263238" stroke-linecap="round" stroke-linejoin="round"/>
<path d="M234.178 310.787L247.456 295.61" stroke="#263238" stroke-linecap="round" stroke-linejoin="round"/>
<path d="M92.8106 158.664C92.8106 158.664 102.267 149.815 109.571 149.815C116.876 149.815 119.374 149.815 120.603 146.962C121.833 144.109 131.044 139.082 132.305 135.93C133.566 132.778 126.616 133.401 122.502 135.615C120.156 136.834 118.026 138.431 116.198 140.343C116.198 140.343 103.543 136.86 97.8538 136.86C92.1645 136.86 88.0511 144.448 87.728 148.246" fill="#CCCCCC"/>
<path d="M92.8106 158.664C92.8106 158.664 102.267 149.815 109.571 149.815C116.876 149.815 119.374 149.815 120.603 146.962C121.833 144.109 131.044 139.082 132.305 135.93C133.566 132.778 126.616 133.401 122.502 135.615C120.156 136.834 118.026 138.431 116.198 140.343C116.198 140.343 103.543 136.86 97.8538 136.86C92.1645 136.86 88.0511 144.448 87.728 148.246" stroke="#263238" stroke-linecap="round" stroke-linejoin="round"/>
<path d="M213.619 132.731C213.619 132.731 218.347 117.554 223.737 121.029C229.127 124.504 228.165 134.315 224.052 138.743C219.939 143.172 217.748 142.541 215.518 140.004" fill="#A6A6A6"/>
<path d="M213.619 132.731C213.619 132.731 218.347 117.554 223.737 121.029C229.127 124.504 228.165 134.315 224.052 138.743C219.939 143.172 217.748 142.541 215.518 140.004" stroke="#263238" stroke-linecap="round" stroke-linejoin="round"/>
<path d="M189.908 292.978C189.902 293.25 189.816 293.514 189.661 293.737C189.506 293.96 189.29 294.133 189.037 294.234C188.785 294.335 188.509 294.36 188.243 294.305C187.977 294.251 187.733 294.119 187.541 293.927C187.349 293.735 187.217 293.491 187.163 293.225C187.108 292.959 187.133 292.683 187.234 292.431C187.335 292.178 187.508 291.962 187.731 291.807C187.954 291.652 188.218 291.566 188.49 291.56C188.677 291.556 188.863 291.589 189.037 291.659C189.211 291.729 189.37 291.833 189.502 291.966C189.635 292.098 189.739 292.257 189.809 292.431C189.879 292.605 189.912 292.791 189.908 292.978Z" fill="white" stroke="#263238" stroke-linecap="round" stroke-linejoin="round"/>
</svg>
